<?xml version="1.0" standalone="no"?><!DOCTYPE svg PUBLIC "-//W3C//DTD SVG 1.1//EN" "http://www.w3.org/Graphics/SVG/1.1/DTD/svg11.dtd"><svg t="1593059707217" class="icon" viewBox="0 0 1024 1024" version="1.1" xmlns="http://www.w3.org/2000/svg" p-id="1618" xmlns:xlink="http://www.w3.org/1999/xlink" width="200" height="200"><defs><style type="text/css"></style></defs><path d="M511.0784 145.408c101.2736 0 192.9216 41.0624 259.2768 107.4176 66.3552 66.3552 107.4176 158.0032 107.4176 259.2768 0 101.2736-41.0624 192.9216-107.4176 259.2768-66.3552 66.3552-158.0032 107.4176-259.2768 107.4176-101.2736 0-192.9216-41.0624-259.2768-107.4176C185.4464 705.024 144.384 613.376 144.384 512.1024c0-101.2736 41.0624-192.9216 107.4176-259.2768C318.0544 186.4704 409.7024 145.408 511.0784 145.408z m0 0" fill="#5EADEF" p-id="1619"></path><path d="M511.0784 177.3568c92.3648 0 176.128 37.4784 236.7488 98.0992 60.6208 60.6208 98.0992 144.2816 98.0992 236.7488 0 92.3648-37.4784 176.128-98.0992 236.7488-60.6208 60.6208-144.2816 98.0992-236.7488 98.0992-92.3648 0-176.128-37.4784-236.7488-98.0992-60.6208-60.6208-98.0992-144.2816-98.0992-236.7488 0-92.3648 37.4784-176.128 98.0992-236.7488 60.5184-60.6208 144.2816-98.0992 236.7488-98.0992z m0 0" fill="#3173E7" p-id="1620"></path><path d="M511.0784 206.5408c84.3776 0 160.768 34.2016 216.064 89.4976 55.296 55.296 89.4976 131.6864 89.4976 216.064s-34.2016 160.768-89.4976 216.064-131.6864 89.4976-216.064 89.4976-160.768-34.2016-216.064-89.4976-89.4976-131.6864-89.4976-216.064 34.2016-160.768 89.4976-216.064 131.584-89.4976 216.064-89.4976z m0 0" fill="#E7F5FD" p-id="1621"></path><path d="M320.3072 728.2688c-55.296-55.296-89.4976-131.6864-89.4976-216.064s34.2016-160.768 89.4976-216.064c52.4288-52.4288 123.904-85.9136 203.0592-89.1904-4.3008-0.2048-8.6016-0.2048-12.9024-0.2048-84.3776 0-160.768 34.2016-216.064 89.4976-55.296 55.1936-89.4976 131.6864-89.4976 216.064s34.2016 160.768 89.4976 216.064 131.6864 89.4976 216.064 89.4976c4.3008 0 8.704-0.1024 12.9024-0.2048-79.2576-3.4816-150.6304-36.9664-203.0592-89.3952z m0 0" fill="#B0CEF6" p-id="1622"></path><path d="M252.6208 489.472c6.0416 0 11.6736 2.4576 15.6672 6.4512 3.9936 3.9936 6.4512 9.5232 6.4512 15.6672 0 6.0416-2.4576 11.6736-6.4512 15.6672-3.9936 3.9936-9.5232 6.4512-15.6672 6.4512-6.0416 0-11.6736-2.4576-15.6672-6.4512-3.9936-3.9936-6.4512-9.5232-6.4512-15.6672 0-6.0416 2.4576-11.6736 6.4512-15.6672 4.096-3.9936 9.6256-6.4512 15.6672-6.4512z m516.8128 0c6.0416 0 11.6736 2.4576 15.6672 6.4512 3.9936 3.9936 6.4512 9.5232 6.4512 15.6672 0 6.0416-2.4576 11.6736-6.4512 15.6672-3.9936 3.9936-9.5232 6.4512-15.6672 6.4512-6.0416 0-11.6736-2.4576-15.6672-6.4512-3.9936-3.9936-6.4512-9.5232-6.4512-15.6672 0-6.0416 2.4576-11.6736 6.4512-15.6672 3.9936-3.9936 9.5232-6.4512 15.6672-6.4512zM533.0944 253.1328c0 6.0416-2.4576 11.6736-6.4512 15.6672-3.9936 3.9936-9.5232 6.4512-15.6672 6.4512s-11.6736-2.4576-15.6672-6.4512c-3.9936-3.9936-6.4512-9.5232-6.4512-15.6672s2.4576-11.6736 6.4512-15.6672c3.9936-3.9936 9.5232-6.4512 15.6672-6.4512s11.6736 2.4576 15.6672 6.4512c3.9936 4.096 6.4512 9.6256 6.4512 15.6672z m0 516.8128c0 6.0416-2.4576 11.6736-6.4512 15.6672-3.9936 3.9936-9.5232 6.4512-15.6672 6.4512s-11.6736-2.4576-15.6672-6.4512c-3.9936-3.9936-6.4512-9.5232-6.4512-15.6672 0-6.0416 2.4576-11.6736 6.4512-15.6672 3.9936-3.9936 9.5232-6.4512 15.6672-6.4512s11.6736 2.4576 15.6672 6.4512c3.9936 4.096 6.4512 9.5232 6.4512 15.6672z m0 0" fill="#5EADEF" p-id="1623"></path><path d="M343.6544 313.2416c4.3008 4.3008 6.4512 10.0352 6.4512 15.6672s-2.1504 11.264-6.4512 15.6672c-4.3008 4.3008-10.0352 6.4512-15.6672 6.4512s-11.264-2.1504-15.6672-6.4512c-4.3008-4.3008-6.4512-10.0352-6.4512-15.6672s2.1504-11.264 6.4512-15.6672c4.3008-4.3008 10.0352-6.4512 15.6672-6.4512s11.264 2.1504 15.6672 6.4512z m365.3632 365.3632c4.3008 4.3008 6.4512 10.0352 6.4512 15.6672s-2.1504 11.264-6.4512 15.6672c-4.3008 4.3008-10.0352 6.4512-15.6672 6.4512s-11.264-2.1504-15.6672-6.4512c-4.3008-4.3008-6.4512-10.0352-6.4512-15.6672s2.1504-11.264 6.4512-15.6672c4.3008-4.3008 10.0352-6.4512 15.6672-6.4512 5.7344 0 11.3664 2.2528 15.6672 6.4512z m0-334.1312c-4.3008 4.3008-10.0352 6.4512-15.6672 6.4512s-11.264-2.1504-15.6672-6.4512c-4.3008-4.3008-6.4512-10.0352-6.4512-15.6672s2.1504-11.264 6.4512-15.6672c4.3008-4.3008 10.0352-6.4512 15.6672-6.4512s11.264 2.1504 15.6672 6.4512c4.3008 4.3008 6.4512 10.0352 6.4512 15.6672s-2.1504 11.3664-6.4512 15.6672zM343.6544 709.8368c-4.3008 4.3008-10.0352 6.4512-15.6672 6.4512s-11.264-2.1504-15.6672-6.4512c-4.3008-4.3008-6.4512-10.0352-6.4512-15.6672s2.1504-11.264 6.4512-15.6672c4.3008-4.3008 10.0352-6.4512 15.6672-6.4512s11.264 2.1504 15.6672 6.4512c4.3008 4.3008 6.4512 10.0352 6.4512 15.6672 0 5.7344-2.2528 11.3664-6.4512 15.6672z m0 0" fill="#95CAF5" p-id="1624"></path><path d="M767.8976 509.1328l-192.512-24.9856c-3.4816-7.7824-8.2944-14.848-14.2336-20.7872-12.4928-12.4928-29.696-20.2752-48.7424-20.2752s-36.2496 7.68-48.7424 20.2752c-12.4928 12.4928-20.2752 29.696-20.2752 48.7424s7.68 36.2496 20.2752 48.7424c12.4928 12.4928 29.696 20.2752 48.7424 20.2752s36.2496-7.68 48.7424-20.2752c6.0416-6.0416 11.0592-13.312 14.5408-21.2992l192.2048-30.4128z m0 0" fill="#FCCA4C" p-id="1625"></path><path d="M463.5648 475.3408c12.4928-12.4928 29.696-20.2752 48.7424-20.2752s36.2496 7.68 48.7424 20.2752c5.9392 5.9392 10.8544 12.9024 14.2336 20.7872l192.512 13.1072-192.512-24.9856c-3.4816-7.7824-8.2944-14.848-14.2336-20.7872-12.4928-12.4928-29.696-20.2752-48.7424-20.2752s-36.2496 7.68-48.7424 20.2752c-12.4928 12.4928-20.2752 29.696-20.2752 48.7424 0 1.9456 0.1024 3.9936 0.2048 5.9392 1.536-16.6912 8.8064-31.744 20.0704-42.8032z m0 0" fill="#FEE5A6" p-id="1626"></path><path d="M537.6 485.5808L512.3072 296.96l-27.8528 188.6208c-6.7584 6.7584-10.9568 16.1792-10.9568 26.5216 0 10.4448 4.1984 19.7632 10.9568 26.5216 6.7584 6.7584 16.1792 10.9568 26.5216 10.9568 10.4448 0 19.7632-4.1984 26.5216-10.9568 6.7584-6.7584 10.9568-16.1792 10.9568-26.5216 0.1024-10.3424-4.096-19.6608-10.8544-26.5216z m0 0" fill="#F99403" p-id="1627"></path><path d="M537.8048 485.5808L512.3072 296.96l19.456 188.6208c6.7584 6.7584 10.9568 16.1792 10.9568 26.5216 0 10.4448-4.1984 19.7632-10.9568 26.5216-6.144 6.144-14.4384 10.1376-23.552 10.8544 1.024 0.1024 1.9456 0.2048 3.072 0.2048 10.4448 0 19.7632-4.1984 26.5216-10.9568 6.7584-6.7584 10.9568-16.1792 10.9568-26.5216 0-10.4448-4.1984-19.7632-10.9568-26.624z m0 0" fill="#FCCA81" p-id="1628"></path><path d="M726.528 296.0384c-55.296-55.296-131.6864-89.4976-216.064-89.4976-5.2224 0-10.4448 0.2048-15.5648 0.4096 78.2336 3.8912 148.6848 37.2736 200.4992 89.088 55.296 55.296 89.4976 131.6864 89.4976 216.064s-34.2016 160.768-89.4976 216.064c-51.8144 51.8144-122.2656 85.1968-200.4992 89.088 5.12 0.2048 10.3424 0.4096 15.5648 0.4096 84.3776 0 160.768-34.2016 216.064-89.4976s89.4976-131.6864 89.4976-216.064c0-84.2752-34.2016-160.768-89.4976-216.064z m0 0" fill="#FAFDFF" p-id="1629"></path><path d="M770.7648 252.928c-66.3552-66.3552-158.0032-107.4176-259.2768-107.4176-6.656 0-13.2096 0.2048-19.6608 0.512 93.4912 4.9152 177.5616 44.8512 239.616 106.9056 66.3552 66.3552 107.4176 158.0032 107.4176 259.2768s-41.0624 192.9216-107.4176 259.2768C669.3888 833.536 585.216 873.472 491.7248 878.3872c6.4512 0.3072 13.0048 0.512 19.6608 0.512 101.2736 0 192.9216-41.0624 259.2768-107.4176 66.3552-66.3552 107.4176-158.0032 107.4176-259.2768 0.1024-101.2736-40.96-192.9216-107.3152-259.2768z m0 0" fill="#9ECEF5" p-id="1630"></path></svg>